HIERARCHY
ROOT root
{
	OFFSET 0.000000 0.000000 0.000000
	CHANNELS 6 Xposition Yposition Zposition Zrotation Yrotation Xrotation
	JOINT lhip
	{
		OFFSET 0.058581 -0.082280 -0.017664
		CHANNELS 3 Zrotation Yrotation Xrotation
		JOINT lknee
		{
			OFFSET 0.043451 -0.386469 0.008037
			CHANNELS 3 Zrotation Yrotation Xrotation
			JOINT lankle
			{
				OFFSET -0.014790 -0.426874 -0.037428
				CHANNELS 3 Zrotation Yrotation Xrotation
				JOINT ltoe
				{
					OFFSET 0.041054 -0.060286 0.122042
					CHANNELS 3 Zrotation Yrotation Xrotation
					End Site
					{
						OFFSET 0.000000 0.000000 0.000000
					}
				}
			}
		}
	}
	JOINT rhip
	{
		OFFSET -0.060310 -0.090513 -0.013543
		CHANNELS 3 Zrotation Yrotation Xrotation
		JOINT rknee
		{
			OFFSET -0.043257 -0.383688 -0.004843
			CHANNELS 3 Zrotation Yrotation Xrotation
			JOINT rankle
			{
				OFFSET 0.019056 -0.420046 -0.034562
				CHANNELS 3 Zrotation Yrotation Xrotation
				JOINT rtoe
				{
					OFFSET -0.034840 -0.062106 0.130323
					CHANNELS 3 Zrotation Yrotation Xrotation
					End Site
					{
						OFFSET 0.000000 0.000000 0.000000
					}
				}
			}
		}
	}
	JOINT lowerback
	{
		OFFSET 0.004439 0.124404 -0.038385
		CHANNELS 3 Zrotation Yrotation Xrotation
		JOINT upperback
		{
			OFFSET 0.004488 0.137956 0.026820
			CHANNELS 3 Zrotation Yrotation Xrotation
			JOINT chest
			{
				OFFSET -0.002265 0.056032 0.002855
				CHANNELS 3 Zrotation Yrotation Xrotation
				JOINT lowerneck
				{
					OFFSET -0.013390 0.211636 -0.033468
					CHANNELS 3 Zrotation Yrotation Xrotation
					JOINT upperneck
					{
						OFFSET 0.010113 0.088937 0.050410
						CHANNELS 3 Zrotation Yrotation Xrotation
						End Site
						{
							OFFSET 0.000000 0.000000 0.000000
						}
					}
				}
				JOINT lclavicle
				{
					OFFSET 0.071702 0.114000 -0.018898
					CHANNELS 3 Zrotation Yrotation Xrotation
					JOINT lshoulder
					{
						OFFSET 0.122921 0.045205 -0.019046
						CHANNELS 3 Zrotation Yrotation Xrotation
						JOINT lelbow
						{
							OFFSET 0.255332 -0.015649 -0.022946
							CHANNELS 3 Zrotation Yrotation Xrotation
							JOINT lwrist
							{
								OFFSET 0.265709 0.012698 -0.007375
								CHANNELS 3 Zrotation Yrotation Xrotation
								End Site
								{
									OFFSET 0.000000 0.000000 0.000000
								}
							}
						}
					}
				}
				JOINT rclavicle
				{
					OFFSET -0.082954 0.112472 -0.023707
					CHANNELS 3 Zrotation Yrotation Xrotation
					JOINT rshoulder
					{
						OFFSET -0.113228 0.046853 -0.008472
						CHANNELS 3 Zrotation Yrotation Xrotation
						JOINT relbow
						{
							OFFSET -0.260127 -0.014369 -0.031269
							CHANNELS 3 Zrotation Yrotation Xrotation
							JOINT rwrist
							{
								OFFSET -0.269108 0.006794 -0.006027
								CHANNELS 3 Zrotation Yrotation Xrotation
								End Site
								{
									OFFSET 0.000000 0.000000 0.000000
								}
							}
						}
					}
				}
			}
		}
	}
}
MOTION
Frames: 7
Frame Time: 0.033333
-1.703686 0.794792 0.986467 3.937665 -0.443864 86.049715 12.103747 9.923707 9.814064 1.342699 -8.703534 -1.217777 -9.773204 11.246896 -11.364936 0.000000 -0.000000 0.000000 -8.222087 -9.737909 8.606358 -1.594826 0.853590 1.656174 6.635194 -13.730278 -7.148888 0.000000 -0.000000 0.000000 0.736157 0.133195 -8.216049 -0.399221 -5.184649 8.836681 -1.902456 0.690683 -4.934868 2.767161 5.564066 3.662591 2.601455 -1.478509 -3.403399 -3.546049 -1.715966 -6.116606 2.769313 -7.918748 -11.427932 6.405537 -8.299754 -10.029898 -20.693055 -17.285038 15.079579 -0.377757 5.004085 -5.645245 11.130456 6.701381 -16.648076 -20.314952 5.533458 -22.018129 7.824517 13.047630 1.093189 
-1.702809 0.794891 0.986540 4.392024 -0.504428 85.374737 11.941686 9.170849 10.066436 1.041073 -8.751522 -0.825287 -8.925730 12.196596 -11.086433 0.000000 -0.000000 0.000000 -8.543381 -10.114493 9.481165 -1.627275 -0.033506 1.463770 7.032720 -13.642925 -6.945620 0.000000 -0.000000 0.000000 -0.104170 0.766239 -8.043899 0.024202 -4.997765 9.968912 -1.394402 -0.109267 -5.105774 2.534851 5.246554 3.119415 2.290109 -1.647179 -3.538845 -2.063831 -1.599382 -5.157540 -1.244678 -8.839919 -12.362888 10.601215 -8.391806 -13.498306 -24.582173 -11.988869 18.920749 -1.189647 4.823401 -5.238500 11.576876 7.074307 -18.164234 -20.746021 4.246154 -22.896499 12.317447 11.127055 4.192431 
-1.701787 0.794534 0.984898 4.081583 -0.481677 85.033896 11.807860 9.530848 10.620778 1.438685 -8.837251 -1.174691 -8.765681 12.651133 -11.034236 0.000000 -0.000000 0.000000 -8.693518 -10.346618 10.119921 -1.831979 0.504949 0.892446 7.314287 -13.524560 -7.091849 0.000000 -0.000000 0.000000 -0.098441 0.848216 -7.660266 -0.099540 -4.921107 9.871763 -1.468541 0.101096 -4.822608 2.630958 5.540064 2.816312 2.547021 -1.629637 -3.697218 -2.084967 -1.410286 -5.588344 -0.698259 -9.104120 -12.628854 10.677894 -8.601762 -14.078248 -23.887429 -11.569066 19.102535 -1.135248 4.903890 -5.147713 11.681925 7.175733 -17.896041 -20.543575 3.782958 -22.542948 11.846572 11.022457 4.086559 
-1.699936 0.793906 0.982376 3.091500 -0.493126 85.512645 11.788711 9.798329 10.856391 1.338820 -8.862343 -1.865601 -8.535892 13.047199 -11.191354 0.000000 -0.000000 0.000000 -8.887534 -10.351313 9.564701 -1.837357 0.982907 0.653815 7.301463 -12.991483 -7.005964 0.000000 -0.000000 0.000000 0.141078 1.330081 -8.916593 -0.160926 -4.449543 10.903401 -1.667429 0.283594 -5.102855 2.823175 5.364679 3.169177 2.588102 -1.990763 -3.760226 -2.303768 -1.479698 -5.965957 -0.236387 -9.051667 -12.765917 10.790604 -9.250853 -15.096508 -23.341066 -11.546033 18.884683 -1.109649 4.904905 -5.328315 11.973083 6.720104 -17.210520 -20.503749 4.179404 -22.488571 11.652137 10.986927 3.506808 
-1.699103 0.793722 0.982086 2.676718 -0.413958 85.735355 11.847574 9.783885 10.991708 1.419381 -8.817975 -2.256591 -8.697314 13.008194 -11.200764 0.000000 -0.000000 0.000000 -8.926635 -10.210835 9.110959 -1.716589 0.887157 0.918768 7.418135 -12.703891 -7.108296 0.000000 -0.000000 0.000000 0.256777 1.501522 -9.432150 -0.097277 -4.196361 11.266714 -1.777221 0.251737 -5.270100 2.847866 5.794315 3.190377 2.414580 -2.057971 -3.327861 -2.047312 -1.165925 -6.088006 -0.523895 -9.497685 -12.579940 10.816118 -9.112397 -15.259099 -22.506448 -11.828245 18.891307 -0.919634 4.549677 -5.369636 12.238005 6.948595 -16.761847 -20.514692 4.405139 -22.466168 10.958983 11.286579 3.475481 
-1.698455 0.794111 0.982883 2.562143 -0.264842 85.906971 11.698250 9.295756 10.782355 1.650039 -8.705846 -2.106177 -8.656209 13.186925 -11.360688 0.000000 -0.000000 0.000000 -8.685325 -9.825434 8.559681 -1.715405 0.674552 1.432756 7.417515 -12.728829 -7.159011 0.000000 -0.000000 0.000000 0.112185 1.338658 -9.600455 0.103819 -4.228807 11.205140 -1.711975 0.255703 -5.320428 2.918305 6.075700 3.300149 2.316132 -2.053292 -2.662386 -1.792319 -0.690033 -6.139871 -1.041081 -9.720020 -12.166264 10.893748 -8.804688 -15.298400 -21.497301 -12.658534 18.898503 -0.553252 4.439313 -5.353589 12.426347 7.174091 -16.253424 -20.383844 4.453719 -22.449861 10.438306 11.942344 3.416719 
-1.697192 0.795221 0.983544 2.846849 -0.451085 85.948663 11.472986 8.962922 10.259792 1.216085 -8.454267 -1.464154 -8.364191 13.136233 -11.602471 0.000000 -0.000000 0.000000 -8.908151 -9.722169 8.365049 -1.684457 0.690200 1.704618 7.667783 -12.842752 -7.231554 0.000000 -0.000000 0.000000 -0.273175 1.228653 -9.260987 0.092355 -4.380205 10.739094 -1.642202 0.133866 -5.137335 2.896598 6.079266 3.198966 2.460441 -1.895920 -2.144647 -1.785667 -0.539053 -6.252981 -1.027586 -9.896623 -12.206811 10.953543 -8.247313 -15.588303 -20.335091 -13.250608 18.634581 -0.304948 4.315148 -5.403634 12.727200 7.216184 -15.942810 -20.259587 4.249427 -22.562721 10.091859 12.096232 2.887894 
